# Blender 3.4.1
# www.blender.org
mtllib bench.mtl
o Plane.003
v -0.491613 0.585773 2.529699
v 0.477184 0.585773 2.529699
v -0.491613 0.585772 -2.278375
v 0.477184 0.585772 -2.278375
v -0.491613 0.794401 -2.278375
v -0.491613 0.794402 2.529699
v 0.477184 0.794402 2.529699
v 0.477184 0.794401 -2.278375
v -0.484329 0.585772 1.896172
v -0.484329 0.585773 2.125589
v 0.469900 0.585773 2.125589
v 0.469900 0.585772 1.896172
v -0.484329 0.794402 1.896172
v -0.484329 0.794402 2.125589
v 0.469900 0.794402 2.125589
v 0.469900 0.794402 1.896172
v -0.430137 0.585773 2.125589
v 0.415708 0.585773 2.125589
v 0.415708 0.585772 1.896172
v -0.430137 0.585772 1.896172
v -0.385385 0.794402 2.125589
v 0.370956 0.794402 2.125589
v 0.370956 0.794402 1.896172
v -0.385385 0.794402 1.896172
v -0.484329 -0.182681 1.896172
v -0.484329 -0.182681 2.125589
v 0.469900 -0.182681 2.125589
v 0.469900 -0.182681 1.896172
v 0.415708 -0.119611 1.896172
v 0.415708 -0.119611 2.125589
v -0.430137 -0.119611 2.125589
v -0.430137 -0.119611 1.896172
v -0.484329 0.585772 -1.874265
v -0.484329 0.585772 -1.644847
v 0.469900 0.585772 -1.644847
v 0.469900 0.585772 -1.874265
v -0.484329 0.794401 -1.874265
v -0.484329 0.794401 -1.644847
v 0.469900 0.794401 -1.644847
v 0.469900 0.794401 -1.874265
v -0.430137 0.585772 -1.644847
v 0.415708 0.585772 -1.644847
v 0.415708 0.585772 -1.874265
v -0.430137 0.585772 -1.874265
v -0.385385 0.794401 -1.644847
v 0.370956 0.794401 -1.644847
v 0.370956 0.794401 -1.874265
v -0.385385 0.794401 -1.874265
v -0.484329 -0.182682 -1.874265
v -0.484329 -0.182682 -1.644847
v 0.469900 -0.182682 -1.644847
v 0.469900 -0.182682 -1.874265
v 0.415708 -0.119612 -1.874265
v 0.415708 -0.119612 -1.644847
v -0.430137 -0.119612 -1.644847
v -0.430137 -0.119612 -1.874265
v -0.491613 0.585772 -1.642563
v -0.491613 0.585772 1.895042
v 0.477184 0.585772 1.895042
v 0.477184 0.585772 -1.642563
v -0.491613 0.794401 -1.642563
v -0.491613 0.794402 1.895042
v 0.477184 0.794402 1.895042
v 0.477184 0.794401 -1.642563
v -0.491613 0.585773 2.127217
v -0.491613 0.794402 2.127217
v 0.477184 0.585773 2.127217
v 0.477184 0.794402 2.127217
v 0.477184 0.585772 -1.877622
v 0.477184 0.794401 -1.877622
v -0.491613 0.585772 -1.877621
v -0.491613 0.794401 -1.877622
vn -0.0000 -1.0000 -0.0000
vn -0.0000 1.0000 -0.0000
vn -0.0000 -0.0000 -1.0000
vn -0.0000 -0.0000 1.0000
vn 1.0000 -0.0000 -0.0000
vn -1.0000 -0.0000 -0.0000
vt 0.948936 0.211501
vt 0.477710 0.936119
vt 0.733252 0.638122
vt 0.948936 0.000000
vt 0.733252 0.426620
vt 0.528775 0.848252
vt 0.822453 0.213310
vt 0.092874 0.983807
vt 0.579839 0.848252
vt 0.822453 0.424812
vt 0.092874 0.772306
vt 0.579839 0.848252
vt 0.822453 0.638122
vt 0.046437 0.983807
vt 0.533402 0.848252
vt 0.995373 0.211501
vt 0.431273 0.936119
vt 0.643667 0.424812
vt 0.995373 0.000000
vt 0.643667 0.213310
vt 0.482338 0.848252
vt 0.822453 0.426620
vt 0.046437 0.772306
vt 0.626276 0.848252
vt 0.643667 0.594384
vt 0.796860 0.683668
vt 0.856061 0.045547
vt 0.745796 0.683668
vt 0.643667 0.045547
vt 0.796860 0.805885
vt 0.431273 0.594384
vt 0.847924 0.805885
vt 0.796860 0.638122
vt 0.643667 0.639931
vt 0.584466 0.848252
vt 0.745796 0.638122
vt 0.856061 0.000000
vt 0.533402 0.848252
vt 0.533402 0.639931
vt 0.796860 0.851432
vt 0.643667 0.000000
vt 0.584466 0.639931
vt 0.847924 0.851432
vt 0.431273 0.639931
vt 0.143939 0.772306
vt 0.843999 0.045547
vt 0.907126 0.772306
vt 0.143938 0.956965
vt 0.655730 0.045547
vt 0.948936 0.846005
vt 0.195003 0.956965
vt 0.443336 0.594384
vt 1.000000 0.846005
vt 0.195003 0.772306
vt 0.631605 0.594384
vt 0.856061 0.772306
vt 0.834038 0.000000
vt 0.533402 0.826651
vt 0.665691 0.000000
vt 0.533402 0.661532
vt 0.453297 0.639931
vt 0.584466 0.661532
vt 0.621644 0.639931
vt 0.584466 0.826651
vt 0.796860 0.851432
vt 0.643667 0.426620
vt 0.584466 0.848252
vt 0.856061 0.213310
vt 0.745796 0.851432
vt 0.635530 0.848252
vt 0.643667 0.213310
vt 0.796860 0.638122
vt 0.635530 0.639931
vt 0.847924 0.638122
vt 0.431273 0.426620
vt 0.584466 0.639931
vt 1.000000 1.000000
vt 0.443336 0.440389
vt 0.092874 0.956965
vt 0.655730 0.199541
vt 0.948936 1.000000
vt 0.143938 0.956965
vt 0.843999 0.199541
vt 0.907126 0.926301
vt 0.143938 0.772306
vt 0.856061 0.926301
vt 0.631605 0.440389
vt 0.092874 0.772306
vt 0.431273 0.045547
vt 0.694731 0.683668
vt 0.643667 0.258857
vt 0.643667 0.683668
vt 0.431273 0.258857
vt 0.694731 0.805885
vt 0.643667 0.045547
vt 0.745796 0.805885
vt 0.694731 0.638122
vt 0.431273 0.000000
vt 0.431273 0.639931
vt 0.643667 0.638122
vt 0.643667 0.213310
vt 0.482337 0.639931
vt 0.482338 0.848252
vt 0.694732 0.851432
vt 0.431273 0.213310
vt 0.431273 0.848252
vt 0.745796 0.851432
vt 0.643667 0.000000
vt 0.297131 0.956965
vt 0.631605 0.258857
vt 0.348195 0.772306
vt 0.297131 0.772306
vt 0.443336 0.258857
vt 0.348195 0.772306
vt 0.246067 0.772306
vt 0.631605 0.045547
vt 0.399259 0.772306
vt 0.246067 0.956965
vt 0.443336 0.045547
vt 0.297131 0.772306
vt 0.621644 0.213310
vt 0.482337 0.661532
vt 0.453297 0.213310
vt 0.482338 0.826651
vt 0.621644 0.000000
vt 0.431273 0.826651
vt 0.453297 0.000000
vt 0.431273 0.661532
vt 0.694732 0.851432
vt 0.431273 0.213310
vt 0.482338 0.848252
vt 0.643667 0.426620
vt 0.643667 0.851432
vt 0.533402 0.848252
vt 0.431273 0.426620
vt 0.694732 0.638122
vt 0.533402 0.639931
vt 0.745796 0.638122
vt 0.643667 0.213310
vt 0.482338 0.639931
vt 0.399259 0.926301
vt 0.631605 0.199541
vt 0.195003 0.956965
vt 0.443336 0.412851
vt 0.348195 0.926301
vt 0.246067 0.956965
vt 0.631605 0.412851
vt 0.348195 0.926301
vt 0.246067 0.772306
vt 0.297131 0.926301
vt 0.443336 0.199541
vt 0.195003 0.772306
vt 0.948936 0.000000
vt 0.000000 0.772306
vt 0.215637 0.772306
vt 0.948936 0.772306
vt 0.995373 0.423003
vt 0.215637 0.000000
vt 0.902499 0.000000
vt 0.995373 0.634504
vt 0.000000 0.000000
vt 0.902499 0.772306
vt 0.000000 0.983807
vt 0.000000 0.772306
vt 0.902499 0.000000
vt 0.046437 0.772306
vt 0.431273 0.000000
vt 0.902499 0.772306
vt 0.431273 0.772306
vt 0.948936 0.423003
vt 0.856061 0.000000
vt 0.215637 0.772306
vt 0.948936 0.634504
vt 0.856062 0.772306
vt 0.046437 0.983807
vt 0.215637 0.000000
vt 0.477710 0.848252
vt 0.643667 0.638122
vt 0.995373 0.423003
vt 0.431273 0.848252
vt 0.733253 0.424812
vt 0.948936 0.423003
vt 0.643667 0.426620
vt 0.528775 0.936119
vt 0.995373 0.211501
vt 0.733253 0.213310
vt 0.482338 0.936119
vt 0.948936 0.211501
vt 0.733253 0.424812
vt 0.579839 0.935741
vt 0.995373 0.846005
vt 0.733252 0.426620
vt 0.626276 0.935741
vt 0.948936 0.846005
vt 0.733253 0.213310
vt 0.995373 0.634504
vt 0.579839 0.935741
vt 0.733252 0.638122
vt 0.948936 0.634504
vt 0.533402 0.935741
s 1
usemtl woodmat
f 71/195/1 3/7/1 4/10/1 69/189/1
f 72/198/2 70/192/2 8/22/2 5/13/2
f 4/11/3 3/8/3 5/14/3 8/23/3
f 1/1/4 2/4/4 7/19/4 6/16/4
f 69/190/5 4/12/5 8/24/5 70/193/5
f 65/177/6 1/2/6 6/17/6 66/180/6
f 57/153/6 58/156/6 62/168/6 61/165/6
f 72/199/4 71/196/4 69/191/4 70/194/4
f 59/159/5 60/162/5 64/174/5 63/171/5
f 61/166/3 64/175/3 60/163/3 57/154/3
f 62/169/2 63/172/2 64/176/2 61/167/2
f 62/170/4 58/157/4 59/160/4 63/173/4
f 58/158/1 57/155/1 60/164/1 59/161/1
f 1/3/1 65/178/1 67/183/1 2/5/1
f 6/18/2 7/20/2 68/186/2 66/181/2
f 2/6/5 67/184/5 68/187/5 7/21/5
f 65/179/3 66/182/3 68/188/3 67/185/3
f 3/9/6 71/197/6 72/200/6 5/15/6
usemtl blackmetalbench
f 22/60/2 15/39/2 16/42/2 23/62/2
f 11/30/5 12/32/5 16/43/5 15/40/5
f 9/26/6 10/28/6 14/36/6 13/33/6
f 20/55/3 9/25/3 13/34/3 24/63/3
f 18/49/4 11/29/4 15/41/4 22/59/4
f 10/27/4 17/46/4 21/57/4 14/37/4
f 17/46/4 18/49/4 22/59/4 21/57/4
f 12/31/3 19/52/3 23/61/3 16/44/3
f 19/52/3 20/55/3 24/63/3 23/61/3
f 14/38/2 21/58/2 24/64/2 13/35/2
f 21/58/2 22/60/2 23/62/2 24/64/2
f 31/83/4 26/68/4 27/71/4 30/80/4
f 17/45/1 20/54/1 19/51/1 18/48/1
f 11/29/4 18/49/4 30/80/4 27/71/4
f 19/52/3 12/31/3 28/75/3 29/78/3
f 18/50/6 19/53/6 29/77/6 30/81/6
f 12/32/5 11/30/5 27/72/5 28/74/5
f 17/46/4 10/27/4 26/68/4 31/83/4
f 9/25/3 20/55/3 32/87/3 25/66/3
f 10/28/6 9/26/6 25/65/6 26/69/6
f 20/56/5 17/47/5 31/84/5 32/86/5
f 25/66/3 32/87/3 29/78/3 28/75/3
f 32/88/2 31/85/2 30/82/2 29/79/2
f 26/70/1 25/67/1 28/76/1 27/73/1
f 46/124/2 39/103/2 40/106/2 47/126/2
f 35/94/5 36/96/5 40/107/5 39/104/5
f 33/90/6 34/92/6 38/100/6 37/97/6
f 44/119/3 33/89/3 37/98/3 48/127/3
f 42/113/4 35/93/4 39/105/4 46/123/4
f 34/91/4 41/110/4 45/121/4 38/101/4
f 41/110/4 42/113/4 46/123/4 45/121/4
f 36/95/3 43/116/3 47/125/3 40/108/3
f 43/116/3 44/119/3 48/127/3 47/125/3
f 38/102/2 45/122/2 48/128/2 37/99/2
f 45/122/2 46/124/2 47/126/2 48/128/2
f 55/147/4 50/132/4 51/135/4 54/144/4
f 41/109/1 44/118/1 43/115/1 42/112/1
f 35/93/4 42/113/4 54/144/4 51/135/4
f 43/116/3 36/95/3 52/139/3 53/142/3
f 42/114/6 43/117/6 53/141/6 54/145/6
f 36/96/5 35/94/5 51/136/5 52/138/5
f 41/110/4 34/91/4 50/132/4 55/147/4
f 33/89/3 44/119/3 56/151/3 49/130/3
f 34/92/6 33/90/6 49/129/6 50/133/6
f 44/120/5 41/111/5 55/148/5 56/150/5
f 49/130/3 56/151/3 53/142/3 52/139/3
f 56/152/2 55/149/2 54/146/2 53/143/2
f 50/134/1 49/131/1 52/140/1 51/137/1
